<svg width="383" height="252" xmlns="http://www.w3.org/2000/svg" xmlns:xlink="http://www.w3.org/1999/xlink" overflow="hidden"><defs><clipPath id="clip0"><path d="M711 405 1094 405 1094 657 711 657Z" fill-rule="evenodd" clip-rule="evenodd"/></clipPath></defs><g clip-path="url(#clip0)" transform="translate(-711 -405)"><path d="M899.973 410.019C900.785 515.325 816.642 601.529 711.624 602.982" stroke="#000000" stroke-width="2" stroke-miterlimit="8" fill="none" fill-rule="evenodd"/><path d="M381.973 190.019C382.785 295.325 298.642 381.529 193.624 382.982" stroke="#000000" stroke-width="2" stroke-miterlimit="8" fill="none" fill-rule="evenodd" transform="matrix(-1 -8.74228e-08 -8.74228e-08 1 1283 220)"/><path d="M0 0 377.927 0.000104987" stroke="#000000" stroke-width="2" stroke-miterlimit="8" fill="none" fill-rule="evenodd" transform="matrix(1 0 0 -1 711 603)"/><text font-family="Calibri,Calibri_MSFontService,sans-serif" font-weight="400" font-size="24" transform="translate(764.968 635)">Output<tspan x="29.574" y="-102">Input</tspan></text><path d="M1089.5 602.444 1089.5 411.5" stroke="#000000" stroke-miterlimit="8" stroke-dasharray="4 3" fill="none" fill-rule="evenodd"/><path d="M900.5 411.5 1089.72 411.5" stroke="#000000" stroke-miterlimit="8" stroke-dasharray="4 3" fill="none" fill-rule="evenodd"/><path d="M0 0 0.000104987 191.772" stroke="#000000" stroke-miterlimit="8" stroke-dasharray="4 3" fill="none" fill-rule="evenodd" transform="matrix(1 0 0 -1 900.5 603.272)"/><path d="M953.5 541.5 1092.1 541.5" stroke="#000000" stroke-miterlimit="8" stroke-dasharray="4 3" fill="none" fill-rule="evenodd"/><path d="M0 0 0.000104987 58.1261" stroke="#000000" stroke-miterlimit="8" stroke-dasharray="4 3" fill="none" fill-rule="evenodd" transform="matrix(1 0 0 -1 952.5 602.626)"/><path d="M0 0 137.18 129.819" stroke="#000000" stroke-miterlimit="8" stroke-dasharray="4 3" fill="none" fill-rule="evenodd" transform="matrix(1 0 0 -1 952.5 541.319)"/><text font-family="Cambria Math,Cambria Math_MSFontService,sans-serif" font-weight="400" font-size="24" transform="translate(915.422 630)">ğ‘™<tspan font-size="18" x="7.5" y="4">ğ‘‘</tspan><tspan x="76.1956" y="-70">ğ‘™</tspan><tspan font-size="18" x="83.6956" y="-65">ğ‘‘</tspan><tspan font-size="18" x="94.8622" y="-65">0</tspan><tspan x="111.356" y="-70">âˆ’</tspan><tspan x="134.689" y="-70">ğ‘™</tspan><tspan font-size="18" x="142.189" y="-65">ğ‘‘</tspan><tspan x="64.0975" y="-154">ğ‘™</tspan><tspan font-size="18" x="71.5975" y="-149">ğ‘‘</tspan><tspan font-size="18" x="82.7642" y="-149">0</tspan><tspan x="129.289" y="-196">ğœ™</tspan><tspan x="5.82855" y="-146">ğ‘™</tspan><tspan font-size="18" x="13.3286" y="-141">ğ‘ </tspan></text></g></svg>