<svg width="384" height="278" xmlns="http://www.w3.org/2000/svg" xmlns:xlink="http://www.w3.org/1999/xlink" overflow="hidden"><defs><clipPath id="clip0"><path d="M153 112 537 112 537 390 153 390Z" fill-rule="evenodd" clip-rule="evenodd"/></clipPath></defs><g clip-path="url(#clip0)" transform="translate(-153 -112)"><path d="M155.002 340.292C154.565 235.083 239.272 149.439 344.199 149.002 449.126 148.564 534.54 233.498 534.977 338.707 534.979 339.283 534.979 339.859 534.976 340.435Z" stroke="#000000" stroke-width="2" stroke-miterlimit="8" fill="none" fill-rule="evenodd"/><path d="M0 0 102.88 160.384" stroke="#000000" stroke-miterlimit="8" stroke-dasharray="4 3" fill="none" fill-rule="evenodd" transform="matrix(1 0 0 -1 345.5 340.884)"/><path d="M345.503 340.444 345.5 149.5" stroke="#000000" stroke-miterlimit="8" stroke-dasharray="4 3" fill="none" fill-rule="evenodd"/><text font-family="Calibri,Calibri_MSFontService,sans-serif" font-weight="400" font-size="24" transform="translate(195.622 168)">Input<tspan x="43.6" y="200">Output</tspan></text><path d="M0 0 0.000104987 160.784" stroke="#000000" stroke-miterlimit="8" stroke-dasharray="4 3" fill="none" fill-rule="evenodd" transform="matrix(1 0 0 -1 448.5 341.284)"/><text font-family="Cambria Math,Cambria Math_MSFontService,sans-serif" font-weight="400" font-size="24" transform="translate(348.271 310)">ğœ™<tspan x="36.3656" y="59">ğ‘™</tspan><tspan font-size="18" x="43.8656" y="63">ğ‘‘</tspan><tspan x="39.8191" y="-169">ğ‘™</tspan><tspan font-size="18" x="47.3191" y="-165">ğ‘ </tspan><tspan x="-39.3098" y="-62">ğ‘™</tspan><tspan font-size="18" x="-31.8098" y="-57">ğ‘‘0</tspan></text></g></svg>